<svg xmlns="http://www.w3.org/2000/svg" width="97.81" height="26.12" viewBox="0 0 97.81 26.12">
  <g id="レイヤー_1" data-name="レイヤー 1" transform="translate(0.01)">
    <g id="グループ_78" data-name="グループ 78">
      <g id="グループ_77" data-name="グループ 77">
        <path id="パス_4" data-name="パス 4" d="M7.17,10.14a1.367,1.367,0,0,0-.53-1.15,6.575,6.575,0,0,0-1.9-.84,13.253,13.253,0,0,1-2.17-.87A3.554,3.554,0,0,1,.39,4.11,3.083,3.083,0,0,1,.97,2.26,3.8,3.8,0,0,1,2.65.99,6.419,6.419,0,0,1,5.11.53a5.75,5.75,0,0,1,2.44.5,3.973,3.973,0,0,1,1.67,1.4,3.628,3.628,0,0,1,.59,2.06H7.17a1.729,1.729,0,0,0-.55-1.37,2.263,2.263,0,0,0-1.56-.49,2.373,2.373,0,0,0-1.5.41,1.309,1.309,0,0,0-.54,1.08,1.246,1.246,0,0,0,.63,1.05,7.022,7.022,0,0,0,1.85.79A7.993,7.993,0,0,1,8.78,7.64a3.334,3.334,0,0,1,1.03,2.5,3.081,3.081,0,0,1-1.26,2.61,5.509,5.509,0,0,1-3.38.94,6.562,6.562,0,0,1-2.69-.54A4.2,4.2,0,0,1,.63,11.67,3.83,3.83,0,0,1-.01,9.49H2.64c0,1.41.84,2.12,2.53,2.12a2.5,2.5,0,0,0,1.47-.38,1.244,1.244,0,0,0,.53-1.07Z" fill="#000333"/>
        <path id="パス_5" data-name="パス 5" d="M14.23,5.03a3.157,3.157,0,0,1,2.54-1.21q3.09,0,3.14,3.59V13.5H17.37V7.48a1.8,1.8,0,0,0-.35-1.21,1.5,1.5,0,0,0-1.17-.39,1.751,1.751,0,0,0-1.62.86V13.5H11.69V0h2.54V5.03Z" fill="#000333"/>
        <path id="パス_6" data-name="パス 6" d="M26.32,13.68a4.713,4.713,0,0,1-3.41-1.28A4.543,4.543,0,0,1,21.6,8.98V8.73a5.7,5.7,0,0,1,.55-2.56,4.083,4.083,0,0,1,1.57-1.74,4.393,4.393,0,0,1,2.32-.61,3.949,3.949,0,0,1,3.07,1.23,4.98,4.98,0,0,1,1.12,3.49V9.58H24.17a2.342,2.342,0,0,0,.74,1.49,2.269,2.269,0,0,0,1.57.56,2.726,2.726,0,0,0,2.29-1.06l1.25,1.4a3.8,3.8,0,0,1-1.55,1.26,5.093,5.093,0,0,1-2.16.45Zm-.29-7.81a1.614,1.614,0,0,0-1.23.51,2.616,2.616,0,0,0-.6,1.47h3.53v-.2a1.86,1.86,0,0,0-.46-1.31,1.646,1.646,0,0,0-1.25-.46Z" fill="#000333"/>
        <path id="パス_7" data-name="パス 7" d="M36.23,13.68a4.713,4.713,0,0,1-3.41-1.28,4.543,4.543,0,0,1-1.31-3.42V8.73a5.7,5.7,0,0,1,.55-2.56,4.083,4.083,0,0,1,1.57-1.74,4.393,4.393,0,0,1,2.32-.61,3.949,3.949,0,0,1,3.07,1.23,4.98,4.98,0,0,1,1.12,3.49V9.58H34.08a2.342,2.342,0,0,0,.74,1.49,2.269,2.269,0,0,0,1.57.56,2.726,2.726,0,0,0,2.29-1.06l1.25,1.4a3.8,3.8,0,0,1-1.55,1.26,5.093,5.093,0,0,1-2.16.45Zm-.29-7.81a1.614,1.614,0,0,0-1.23.51,2.616,2.616,0,0,0-.6,1.47h3.53v-.2a1.86,1.86,0,0,0-.46-1.31,1.646,1.646,0,0,0-1.25-.46Z" fill="#000333"/>
        <path id="パス_8" data-name="パス 8" d="M50.42,8.83a5.678,5.678,0,0,1-1,3.52,3.2,3.2,0,0,1-2.69,1.32,2.955,2.955,0,0,1-2.33-1v4.48H41.86V3.99h2.36l.09.93a2.993,2.993,0,0,1,2.41-1.11,3.208,3.208,0,0,1,2.73,1.3,5.866,5.866,0,0,1,.98,3.59v.13Zm-2.54-.18a3.792,3.792,0,0,0-.47-2.05,1.531,1.531,0,0,0-1.37-.72,1.653,1.653,0,0,0-1.64.91v3.89a1.682,1.682,0,0,0,1.66.94c1.21,0,1.82-.99,1.82-2.98Z" fill="#000333"/>
        <path id="パス_9" data-name="パス 9" d="M67.05,9.24a4.54,4.54,0,0,1-1.52,3.25,5.362,5.362,0,0,1-3.63,1.19,4.8,4.8,0,0,1-3.87-1.66,6.806,6.806,0,0,1-1.41-4.55V6.69a7.726,7.726,0,0,1,.65-3.25,4.815,4.815,0,0,1,1.86-2.16,5.812,5.812,0,0,1,6.38.44,4.865,4.865,0,0,1,1.56,3.33H64.43a2.625,2.625,0,0,0-.69-1.8,2.581,2.581,0,0,0-1.81-.56,2.222,2.222,0,0,0-1.97.94,5.345,5.345,0,0,0-.67,2.93v.97a5.656,5.656,0,0,0,.63,3.03,2.2,2.2,0,0,0,1.98.96,2.608,2.608,0,0,0,1.82-.56,2.536,2.536,0,0,0,.69-1.73h2.64Z" fill="#000333"/>
        <path id="パス_10" data-name="パス 10" d="M68.45,8.66a5.688,5.688,0,0,1,.54-2.52,3.944,3.944,0,0,1,1.57-1.71,4.629,4.629,0,0,1,2.38-.61A4.31,4.31,0,0,1,76.08,5a4.771,4.771,0,0,1,1.36,3.2l.02.65a4.982,4.982,0,0,1-1.22,3.51,4.735,4.735,0,0,1-6.56,0,5.092,5.092,0,0,1-1.23-3.59V8.66Zm2.54.18a3.555,3.555,0,0,0,.51,2.07,1.685,1.685,0,0,0,1.46.72,1.665,1.665,0,0,0,1.44-.71,3.86,3.86,0,0,0,.52-2.27,3.486,3.486,0,0,0-.52-2.06,1.682,1.682,0,0,0-1.46-.73,1.635,1.635,0,0,0-1.44.73A3.938,3.938,0,0,0,70.99,8.84Z" fill="#000333"/>
        <path id="パス_11" data-name="パス 11" d="M78.81,8.67a5.7,5.7,0,0,1,1-3.54,3.236,3.236,0,0,1,2.73-1.32,2.9,2.9,0,0,1,2.29,1.04V0h2.55V13.5H85.09l-.12-1.01a2.993,2.993,0,0,1-2.44,1.19,3.214,3.214,0,0,1-2.69-1.32,5.962,5.962,0,0,1-1.02-3.68Zm2.54.19a3.745,3.745,0,0,0,.47,2.05,1.5,1.5,0,0,0,1.35.71,1.693,1.693,0,0,0,1.66-.99V6.87a1.674,1.674,0,0,0-1.64-.99c-1.22,0-1.84.99-1.84,2.98Z" fill="#000333"/>
        <path id="パス_12" data-name="パス 12" d="M93.89,13.68a4.713,4.713,0,0,1-3.41-1.28,4.543,4.543,0,0,1-1.31-3.42V8.73a5.7,5.7,0,0,1,.55-2.56,4.083,4.083,0,0,1,1.57-1.74,4.393,4.393,0,0,1,2.32-.61,3.949,3.949,0,0,1,3.07,1.23A4.98,4.98,0,0,1,97.8,8.54V9.58H91.74a2.342,2.342,0,0,0,.74,1.49,2.269,2.269,0,0,0,1.57.56,2.726,2.726,0,0,0,2.29-1.06l1.25,1.4a3.8,3.8,0,0,1-1.55,1.26,5.093,5.093,0,0,1-2.16.45ZM93.6,5.87a1.614,1.614,0,0,0-1.23.51,2.616,2.616,0,0,0-.6,1.47H95.3v-.2a1.86,1.86,0,0,0-.46-1.31,1.646,1.646,0,0,0-1.25-.46Z" fill="#000333"/>
      </g>
      <path id="パス_13" data-name="パス 13" d="M12.11,23.77l1.88,2.35,68.04-7.81Z" fill="#faed95"/>
    </g>
  </g>
</svg>
